<svg xmlns="http://www.w3.org/2000/svg" viewBox="0 0 187 187"><defs><style>.cls-1{fill:#fff;}</style></defs><g id="Layer_2" data-name="Layer 2"><g id="Layer_1-2" data-name="Layer 1"><circle cx="93.5" cy="93.5" r="93.5"/><path class="cls-1" d="M133.84,64.3a20.74,20.74,0,0,0,9.4-11.91,50.74,50.74,0,0,1-13.76,5,20.42,20.42,0,0,0-15.58-6.67,21.18,21.18,0,0,0-15.47,6.31,20.84,20.84,0,0,0-6.3,15.25,15.42,15.42,0,0,0,.68,4.79q-27-.92-44.66-22.46a21.66,21.66,0,0,0-3,10.81q0,11.43,9.64,18.08a23.93,23.93,0,0,1-9.64-2.75,21.45,21.45,0,0,0,4.81,14,21.2,21.2,0,0,0,12.38,7.56,23,23,0,0,1-5.73.69,10.87,10.87,0,0,1-3.89-.48,20.75,20.75,0,0,0,7.56,10.78,21.42,21.42,0,0,0,12.6,4.35,42.23,42.23,0,0,1-26.81,9.14,36,36,0,0,1-5.28-.22A59.7,59.7,0,0,0,74,136.24q18.78,0,33.22-9.52c9.63-6.31,16.74-14.09,21.3-23.26a63.08,63.08,0,0,0,6.86-28.65V72.07A45.54,45.54,0,0,0,146.2,60.83,47.82,47.82,0,0,1,133.84,64.3Z"/></g></g></svg>