<svg xmlns="http://www.w3.org/2000/svg" viewBox="0 0 187 187"><defs><style>.cls-1{fill:#fff;}</style></defs><g id="Layer_2" data-name="Layer 2"><g id="Layer_1-2" data-name="Layer 1"><circle cx="93.5" cy="93.5" r="93.5"/><path class="cls-1" d="M93.43,57.54s-31.78,0-39.73,2.12a12.79,12.79,0,0,0-9.14,9c-2.12,7.94-2.12,24.76-2.12,24.76s0,16.69,2.12,24.77a12.64,12.64,0,0,0,9,9c7.94,2.25,39.86,2.25,39.86,2.25s31.92,0,39.87-2.25a12.22,12.22,0,0,0,9-9c2.25-7.94,2.25-24.77,2.25-24.77s0-16.69-2.25-24.76a12.2,12.2,0,0,0-9-9c-8-2.12-39.73-2.12-39.73-2.12ZM83,78.33l26.76,15.1L83,108.67V78.33Z"/></g></g></svg>