<svg xmlns="http://www.w3.org/2000/svg" viewBox="0 0 342.98 238.77"><path fill="#abafd6" stroke="#000" stroke-miterlimit="10" stroke-width="3" d="M155.37 227.67c-.26-.4-.54-.81-1.05-1.53-4.16-6-7.48-8.49-10.45-8.12-3.18.38-6.46 3.8-10.38 9.54l-.2.28c-2.58 3.79-4.94 7.23-8.93 8.72a20 20 0 01-5.88.7 20.5 20.5 0 01-5.91-.66c-4.16-1.5-6.56-5.09-9.2-9.04-2.65-3.95-5.74-8.61-11.13-10.58-5.66-1.2-10.52 1.16-14.91 3.3-4.17 2.07-7.95 3.87-12.2 3.2a20.5 20.5 0 01-5.43-2.37 20.38 20.38 0 01-4.8-3.54c-2.85-3.36-3.13-7.68-3.44-12.43-.31-4.75-.68-10.32-4.35-14.74-4.28-3.86-9.69-4.24-14.56-4.6-4.6-.32-8.81-.61-12.13-3.36a20.08 20.08 0 01-3.56-4.73 20.62 20.62 0 01-2.39-5.47c-.8-4.31 1.13-8.22 3.24-12.48 2.1-4.26 4.56-9.25 3.65-14.89-1.79-5.52-6.28-8.56-10.33-11.28-3.83-2.6-7.34-4.95-8.83-8.98a25.82 25.82 0 01-.03-11.8c1.48-4.14 5.07-6.56 9.04-9.2 3.96-2.64 8.6-5.73 10.58-11.12 1.2-5.66-1.16-10.52-3.32-14.92-2.09-4.14-3.91-7.93-3.21-12.16a20.16 20.16 0 012.36-5.45 20.52 20.52 0 013.54-4.79c3.36-2.86 7.68-3.14 12.43-3.45 4.75-.31 10.32-.67 14.73-4.35 3.87-4.28 4.25-9.69 4.6-14.56.33-4.6.62-8.8 3.37-12.12a19.89 19.89 0 014.73-3.57 20.41 20.41 0 015.47-2.38c4.31-.79 8.2 1.12 12.46 3.22 4.4 2.17 9.27 4.58 14.9 3.66a15.38 15.38 0 005.86-3.55 31 31 0 004.39-5.3l1.06-1.54c2.56-3.81 4.92-7.32 8.93-8.82a20.74 20.74 0 015.89-.7 20 20 0 015.9.67c4.17 1.48 6.57 5.08 9.2 9.04l.1.14.56.82.57.83c3.8 5.51 7.31 7.97 10.72 7.86 3.4-.11 7.03-3.1 10.74-8.49l1.06-1.55c2.58-3.83 4.94-7.33 8.97-8.83a25.82 25.82 0 0111.8-.03c4.15 1.49 6.55 5.07 9.2 9.04l.1.14.55.83.56.84c3.65 5.3 6.57 7.88 9.19 7.8 2.61-.08 5.62-2.83 9.31-8.18l1.06-1.54c2.57-3.83 4.93-7.33 8.97-8.82a20 20 0 015.92-.7 20 20 0 015.91.67c4.16 1.49 6.56 5.08 9.2 9.03l.1.14.54.84.57.82a31.65 31.65 0 004.3 5.23 16.52 16.52 0 005.64 3.56c5.65 1.21 10.52-1.17 14.92-3.31 4.14-2.02 7.94-3.86 12.18-3.2a19.92 19.92 0 015.45 2.37 20.32 20.32 0 014.78 3.53c2.87 3.37 3.15 7.69 3.45 12.44.31 4.75.68 10.3 4.35 14.73 4.3 3.86 9.69 4.25 14.57 4.6 4.6.32 8.8.61 12.12 3.36a19.92 19.92 0 013.57 4.75 20.81 20.81 0 012.38 5.45c.78 4.31-1.13 8.22-3.24 12.48-2.1 4.26-4.57 9.25-3.64 14.89 1.78 5.52 6.27 8.56 10.32 11.29 3.83 2.58 7.34 4.95 8.83 8.98a20.6 20.6 0 01.71 5.89 21 21 0 01-.67 5.9c-1.49 4.15-5.08 6.57-9.04 9.2-3.96 2.63-8.62 5.73-10.59 11.13-1.18 5.64 1.18 10.52 3.33 14.92 2.01 4.14 3.85 7.93 3.14 12.17a25.53 25.53 0 01-5.88 10.24c-3.35 2.86-7.67 3.14-12.42 3.44-4.75.31-10.31.68-14.73 4.35-3.86 4.3-4.24 9.7-4.6 14.57-.32 4.6-.62 8.8-3.37 12.12a20 20 0 01-4.74 3.57 20.61 20.61 0 01-5.46 2.38c-4.31.78-8.21-1.12-12.47-3.23-4.26-2.12-9.25-4.58-14.89-3.65-5.51 1.74-8.55 6.25-11.3 10.32-2.58 3.82-4.94 7.33-8.96 8.83a20.69 20.69 0 01-5.9.7 20.33 20.33 0 01-5.9-.67c-4.07-1.45-6.44-4.92-9.08-8.77l-.49-.71c-3.9-5.65-7.27-9.05-10.46-9.43-3-.37-6.34 2.08-10.42 8.06l-.56.82-.55.83-.1.15c-2.62 3.96-5.02 7.56-9.18 9.08a20.27 20.27 0 01-5.9.7 20.91 20.91 0 01-5.89-.7c-4.03-1.5-6.4-4.99-9-8.8z"/></svg>
