<svg xmlns="http://www.w3.org/2000/svg" viewBox="0 0 335.13 258.72"><defs><style>.cls-1{fill:#abafd6;}.cls-2{fill:none;stroke:#000;stroke-miterlimit:10;stroke-width:3px;}</style></defs><g id="Layer_2" data-name="Layer 2"><g id="Layer_1-2" data-name="Layer 1"><path class="cls-1" d="M332.85,89.56a21,21,0,0,1,.75,5.89c-.45,4.39-3.37,7.59-6.59,11.09s-7,7.62-7.63,13.33c.19,5.76,3.65,9.94,6.78,13.7,2.94,3.54,5.63,6.79,5.95,11.07A25.53,25.53,0,0,1,328.85,156c-2.58,3.57-6.71,4.87-11.25,6.3s-9.85,3.11-13.27,7.73c-2.73,5.09-1.81,10.42-1,15.24.78,4.54,1.49,8.7-.39,12.58a20,20,0,0,1-3.75,4.59,20.61,20.61,0,0,1-4.74,3.61c-4,1.79-8.24.87-12.88-.17s-10.07-2.24-15.33,0c-4.94,3-6.82,8.11-8.51,12.71-1.6,4.33-3.06,8.3-6.61,10.71a20.69,20.69,0,0,1-5.56,2.09,20.33,20.33,0,0,1-5.9.75c-4.29-.44-7.42-3.24-10.9-6.35-.6-.53,0,0-.64-.58-5.14-4.56-9.22-7.06-12.41-6.67-3,.36-5.66,3.53-8.2,10.31l-.35.93c-.08.22-.11.32-.34.94l-.05.17c-1.61,4.47-3.08,8.54-6.76,11a20.27,20.27,0,0,1-5.57,2.08,20.91,20.91,0,0,1-5.88.73c-4.27-.49-7.41-3.32-10.84-6.41l0,0c-.35-.33-.72-.66-1.39-1.24-5.47-4.84-9.28-6.46-12.08-5.4-3,1.13-5.37,5.23-7.81,11.74l-.12.32c-1.61,4.29-3.08,8.2-6.6,10.59a20,20,0,0,1-5.55,2.08,20.5,20.5,0,0,1-5.9.77c-4.39-.46-7.58-3.38-11.09-6.59s-7.62-7-13.32-7.63c-5.78.18-9.94,3.63-13.7,6.76-3.55,3-6.8,5.65-11.08,6a20.5,20.5,0,0,1-5.84-1,20.38,20.38,0,0,1-5.5-2.3c-3.58-2.58-4.88-6.71-6.31-11.25s-3.11-9.86-7.73-13.28c-5.08-2.73-10.42-1.81-15.24-1-4.54.78-8.7,1.5-12.58-.38a20.08,20.08,0,0,1-4.58-3.75,20.62,20.62,0,0,1-3.62-4.74c-1.8-4-.86-8.25.17-12.89s2.23-10.07,0-15.33c-3.05-4.94-8.13-6.82-12.72-8.5-4.33-1.61-8.3-3.06-10.71-6.62a25.82,25.82,0,0,1-2.84-11.45c.45-4.38,3.37-7.58,6.59-11.09s7-7.62,7.63-13.32c-.18-5.78-3.63-9.94-6.77-13.7C6,121.6,3.33,118.36,3,114.08a20.16,20.16,0,0,1,1-5.85,20.52,20.52,0,0,1,2.3-5.5c2.58-3.58,6.71-4.88,11.25-6.31s9.86-3.11,13.27-7.73c2.74-5.08,1.82-10.42,1-15.24-.77-4.54-1.49-8.7.39-12.57a19.89,19.89,0,0,1,3.75-4.59,20.41,20.41,0,0,1,4.74-3.62c4-1.79,8.24-.86,12.87.17,4.79,1.06,10.09,2.24,15.35,0A15.38,15.38,0,0,0,73.76,48a31,31,0,0,0,3-6.19c.32-.83.49-1.29.66-1.75C79,35.75,80.46,31.78,84,29.37a20.74,20.74,0,0,1,5.55-2.09,20,20,0,0,1,5.9-.75c4.39.45,7.58,3.37,11.08,6.59l.13.11.74.67.75.67c5,4.45,9,6,12.28,5.08s6.09-4.69,8.41-10.8c.32-.84.49-1.3.66-1.76,1.6-4.33,3.06-8.3,6.61-10.71a25.82,25.82,0,0,1,11.45-2.84c4.39.46,7.58,3.37,11.09,6.59l.13.12.74.67.74.68c4.81,4.29,8.26,6.09,10.78,5.39s4.79-4.09,7.1-10.16c.32-.83.48-1.3.66-1.75,1.59-4.33,3.05-8.29,6.61-10.7A20,20,0,0,1,191,2.29a20,20,0,0,1,5.9-.76c4.39.46,7.58,3.38,11.08,6.59l.13.11.73.68.75.67A31.65,31.65,0,0,0,215,13.63a16.52,16.52,0,0,0,6.33,2.12c5.78-.17,9.94-3.64,13.71-6.77,3.54-2.95,6.79-5.64,11.07-6a19.92,19.92,0,0,1,5.85,1,20.32,20.32,0,0,1,5.49,2.29c3.58,2.59,4.88,6.72,6.31,11.26s3.11,9.85,7.73,13.27c5.09,2.73,10.42,1.82,15.24,1,4.54-.78,8.7-1.5,12.58.38a19.92,19.92,0,0,1,4.59,3.76,20.81,20.81,0,0,1,3.61,4.73c1.79,4,.86,8.25-.17,12.89s-2.24,10.08,0,15.33c3.05,4.94,8.13,6.82,12.72,8.51,4.33,1.6,8.3,3.06,10.71,6.62A20.6,20.6,0,0,1,332.85,89.56ZM329,95a16.23,16.23,0,0,0-.65-4.31,15.34,15.34,0,0,0-1.44-4.06c-1.59-2.33-4.87-3.54-8.46-4.87-5.35-2-11.28-4.16-15.15-10.54a2.67,2.67,0,0,1-.2-.42c-2.91-6.65-1.56-12.74-.34-18.22.85-3.87,1.63-7.39.46-10a16.61,16.61,0,0,0-2.72-3.41,16.37,16.37,0,0,0-3.27-2.8c-2.52-1.23-6-.63-9.76,0-5.63,1-11.85,2-18.4-1.55a2,2,0,0,1-.31-.2c-5.9-4.31-7.8-10.29-9.5-15.68-1.18-3.77-2.26-7.2-4.59-8.88a16.24,16.24,0,0,0-4.05-1.59,16.48,16.48,0,0,0-4.24-.8c-2.81.21-5.5,2.45-8.45,4.91-4.38,3.63-9.23,7.67-16.69,7.83l-.36,0a20.78,20.78,0,0,1-8.24-2.71,36.68,36.68,0,0,1-6.19-4.62l-.77-.71-.89-.8c-2.91-2.67-5.56-5.1-8.41-5.39A15.87,15.87,0,0,0,192,6.8,15.34,15.34,0,0,0,188,8.24c-2.33,1.58-3.54,4.87-4.87,8.46-.26.7-.53,1.43-.67,1.79-2.86,7.51-6,11.82-10.19,13s-9-1-15.11-6.4l-.78-.71-.75-.68-.13-.12c-2.92-2.67-5.57-5.1-8.41-5.39a16.24,16.24,0,0,0-4.32.64,15.5,15.5,0,0,0-4.06,1.46c-2.33,1.57-3.54,4.85-4.87,8.45-.26.71-.52,1.42-.67,1.79-2.86,7.53-6.64,12.18-11.42,13.62s-10.39-.46-16.7-6.07l-.77-.71-.89-.8c-2.91-2.67-5.57-5.1-8.41-5.39a16.13,16.13,0,0,0-4.32.64,16.19,16.19,0,0,0-4.07,1.45C84.23,34.82,83,38.1,81.68,41.7c-.25.71-.53,1.44-.66,1.79a36.37,36.37,0,0,1-3.44,7.09,20.12,20.12,0,0,1-6.44,6.26,2.22,2.22,0,0,1-.41.2C64.07,60,58,58.6,52.5,57.39c-3.86-.85-7.37-1.64-10-.46a16.94,16.94,0,0,0-3.4,2.71,16.91,16.91,0,0,0-2.81,3.28c-1.21,2.51-.62,6,0,9.75,1,5.64,2,11.85-1.56,18.4a3.28,3.28,0,0,1-.2.31c-4.32,5.9-10.29,7.8-15.68,9.5-3.77,1.18-7.19,2.26-8.88,4.6a16.13,16.13,0,0,0-1.59,4,16,16,0,0,0-.79,4.24c.2,2.81,2.45,5.5,4.89,8.45,3.65,4.39,7.68,9.23,7.84,16.69a1.58,1.58,0,0,1,0,.38c-.78,7.28-5,11.89-8.83,16.07-2.67,2.91-5.09,5.56-5.39,8.41a16.23,16.23,0,0,0,.65,4.31,15.28,15.28,0,0,0,1.45,4.06c1.58,2.33,4.86,3.54,8.46,4.87,5.35,2,11.27,4.16,15.14,10.54a2.67,2.67,0,0,1,.2.42c2.91,6.65,1.56,12.74.35,18.22-.85,3.87-1.63,7.39-.46,10a15.93,15.93,0,0,0,2.72,3.41,15.83,15.83,0,0,0,3.27,2.8c2.51,1.23,6,.63,9.76,0,5.63-1,11.84-2,18.39,1.55a2,2,0,0,1,.31.2c5.9,4.31,7.8,10.29,9.5,15.68,1.18,3.77,2.27,7.2,4.6,8.88a16.13,16.13,0,0,0,4,1.59,16.55,16.55,0,0,0,4.24.8c2.81-.21,5.5-2.45,8.45-4.91,4.39-3.63,9.23-7.67,16.69-7.83l.38,0c7.28.78,11.89,5,16.07,8.83,2.91,2.67,5.56,5.11,8.41,5.39a22.19,22.19,0,0,0,8.37-2.09c2.3-1.55,3.52-4.8,4.86-8.35l.11-.32c2.92-7.77,6.1-12.79,10.51-14.47,4.56-1.74,9.88.14,16.81,6.26h0l1.42,1.28c2.85,2.56,5.44,4.91,8.24,5.23a16.19,16.19,0,0,0,4.27-.61,16.77,16.77,0,0,0,4.13-1.43c2.38-1.59,3.59-5,4.94-8.69l.05-.16.35-1,.36-1c3.23-8.61,7.11-12.72,12-13.31,4.71-.56,9.89,2.37,16,7.83l.64.57h0c2.91,2.59,5.51,4.92,8.29,5.21a16.18,16.18,0,0,0,4.31-.65,15.29,15.29,0,0,0,4.07-1.45c2.33-1.58,3.54-4.86,4.87-8.46,2-5.34,4.15-11.27,10.54-15.14a2.22,2.22,0,0,1,.41-.2c6.66-2.91,12.75-1.56,18.23-.35,3.87.85,7.38,1.64,10,.46a16.19,16.19,0,0,0,3.4-2.72,16,16,0,0,0,2.81-3.27c1.21-2.51.63-6,0-9.75-1-5.64-2-11.85,1.57-18.4a2,2,0,0,1,.19-.31c4.32-5.9,10.3-7.8,15.69-9.5,3.77-1.18,7.19-2.26,8.88-4.6a22.72,22.72,0,0,0,2.38-8.28c-.2-2.81-2.45-5.5-4.9-8.45-3.65-4.39-7.67-9.23-7.83-16.69a2.36,2.36,0,0,1,0-.38c.78-7.28,5-11.89,8.83-16.07C326.23,100.48,328.66,97.83,329,95Z"/><path class="cls-1" d="M328.3,90.67A16.23,16.23,0,0,1,329,95c-.29,2.85-2.72,5.5-5.39,8.41-3.81,4.18-8.05,8.79-8.83,16.07a2.36,2.36,0,0,0,0,.38c.16,7.46,4.18,12.3,7.83,16.69,2.45,2.95,4.7,5.64,4.9,8.45a22.72,22.72,0,0,1-2.38,8.28c-1.69,2.34-5.11,3.42-8.88,4.6-5.39,1.7-11.37,3.6-15.69,9.5a2,2,0,0,0-.19.31c-3.6,6.55-2.53,12.76-1.57,18.4.66,3.77,1.24,7.24,0,9.75a16,16,0,0,1-2.81,3.27,16.19,16.19,0,0,1-3.4,2.72c-2.62,1.18-6.13.39-10-.46-5.48-1.21-11.57-2.56-18.23.35a2.22,2.22,0,0,0-.41.2c-6.39,3.87-8.57,9.8-10.54,15.14-1.33,3.6-2.54,6.88-4.87,8.46a15.29,15.29,0,0,1-4.07,1.45,16.18,16.18,0,0,1-4.31.65c-2.78-.29-5.38-2.62-8.29-5.21h0l-.64-.57c-6.14-5.46-11.32-8.39-16-7.83-4.89.59-8.77,4.7-12,13.31l-.36,1-.35,1-.05.16c-1.35,3.71-2.56,7.1-4.94,8.69a16.77,16.77,0,0,1-4.13,1.43,16.19,16.19,0,0,1-4.27.61c-2.8-.32-5.39-2.67-8.24-5.23l-1.42-1.28h0c-6.93-6.12-12.25-8-16.81-6.26-4.41,1.68-7.59,6.7-10.51,14.47l-.11.32c-1.34,3.55-2.56,6.8-4.86,8.35a22.19,22.19,0,0,1-8.37,2.09c-2.85-.28-5.5-2.72-8.41-5.39-4.18-3.81-8.79-8.05-16.07-8.83l-.38,0c-7.46.16-12.3,4.2-16.69,7.83-3,2.46-5.64,4.7-8.45,4.91a16.55,16.55,0,0,1-4.24-.8,16.13,16.13,0,0,1-4-1.59c-2.33-1.68-3.42-5.11-4.6-8.88-1.7-5.39-3.6-11.37-9.5-15.68a2,2,0,0,0-.31-.2c-6.55-3.59-12.76-2.53-18.39-1.55-3.78.64-7.25,1.24-9.76,0a15.83,15.83,0,0,1-3.27-2.8,15.93,15.93,0,0,1-2.72-3.41c-1.17-2.61-.39-6.13.46-10,1.21-5.48,2.56-11.57-.35-18.22a2.67,2.67,0,0,0-.2-.42C27.93,181.16,22,179,16.66,177c-3.6-1.33-6.88-2.54-8.46-4.87a15.28,15.28,0,0,1-1.45-4.06,16.23,16.23,0,0,1-.65-4.31c.3-2.85,2.72-5.5,5.39-8.41,3.82-4.18,8-8.79,8.83-16.07a1.58,1.58,0,0,0,0-.38c-.16-7.46-4.19-12.3-7.84-16.69-2.44-2.95-4.69-5.64-4.89-8.45a16,16,0,0,1,.79-4.24,16.13,16.13,0,0,1,1.59-4c1.69-2.34,5.11-3.42,8.88-4.6,5.39-1.7,11.36-3.6,15.68-9.5a3.28,3.28,0,0,0,.2-.31c3.59-6.55,2.53-12.76,1.56-18.4-.65-3.77-1.24-7.24,0-9.75a16.91,16.91,0,0,1,2.81-3.28,16.94,16.94,0,0,1,3.4-2.71c2.63-1.18,6.14-.39,10,.46C58,58.6,64.07,60,70.73,57a2.22,2.22,0,0,0,.41-.2,20.12,20.12,0,0,0,6.44-6.26A36.37,36.37,0,0,0,81,43.49c.13-.35.41-1.08.66-1.79,1.33-3.6,2.55-6.88,4.87-8.46a16.19,16.19,0,0,1,4.07-1.45,16.13,16.13,0,0,1,4.32-.64c2.84.29,5.5,2.72,8.41,5.39l.89.8.77.71c6.31,5.61,11.84,7.52,16.7,6.07S130.27,38,133.13,30.5c.15-.37.41-1.08.67-1.79,1.33-3.6,2.54-6.88,4.87-8.45a15.5,15.5,0,0,1,4.06-1.46,16.24,16.24,0,0,1,4.32-.64c2.84.29,5.49,2.72,8.41,5.39l.13.12.75.68.78.71c6.08,5.42,10.86,7.58,15.11,6.4s7.33-5.46,10.19-13c.14-.36.41-1.09.67-1.79,1.33-3.59,2.54-6.88,4.87-8.46A15.34,15.34,0,0,1,192,6.8a15.87,15.87,0,0,1,4.31-.65c2.85.29,5.5,2.72,8.41,5.39l.89.8.77.71a36.68,36.68,0,0,0,6.19,4.62,20.78,20.78,0,0,0,8.24,2.71l.36,0c7.46-.16,12.31-4.2,16.69-7.83,3-2.46,5.64-4.7,8.45-4.91a16.48,16.48,0,0,1,4.24.8,16.24,16.24,0,0,1,4.05,1.59c2.33,1.68,3.41,5.11,4.59,8.88,1.7,5.39,3.6,11.37,9.5,15.68a2,2,0,0,0,.31.2c6.55,3.59,12.77,2.53,18.4,1.55,3.77-.64,7.24-1.24,9.76,0a16.37,16.37,0,0,1,3.27,2.8,16.61,16.61,0,0,1,2.72,3.41c1.17,2.61.39,6.13-.46,10-1.22,5.48-2.57,11.57.34,18.22a2.67,2.67,0,0,0,.2.42c3.87,6.38,9.8,8.56,15.15,10.54,3.59,1.33,6.87,2.54,8.46,4.87A15.34,15.34,0,0,1,328.3,90.67Z"/><path class="cls-2" d="M177.71,238.33c-.35-.33-.72-.66-1.39-1.24-5.47-4.84-9.28-6.46-12.08-5.4-3,1.13-5.37,5.23-7.81,11.74l-.12.32c-1.61,4.29-3.08,8.2-6.6,10.59a20,20,0,0,1-5.55,2.08,20.5,20.5,0,0,1-5.9.77c-4.39-.46-7.58-3.38-11.09-6.59s-7.62-7-13.32-7.63c-5.78.18-9.94,3.63-13.7,6.76-3.55,3-6.8,5.65-11.08,6a20.5,20.5,0,0,1-5.84-1,20.38,20.38,0,0,1-5.5-2.3c-3.58-2.58-4.88-6.71-6.31-11.25s-3.11-9.86-7.73-13.28c-5.08-2.73-10.42-1.81-15.24-1-4.54.78-8.7,1.5-12.58-.38a20.08,20.08,0,0,1-4.58-3.75,20.62,20.62,0,0,1-3.62-4.74c-1.8-4-.86-8.25.17-12.89s2.23-10.07,0-15.33c-3.05-4.94-8.13-6.82-12.72-8.5-4.33-1.61-8.3-3.06-10.71-6.62a25.82,25.82,0,0,1-2.84-11.45c.45-4.38,3.37-7.58,6.59-11.09s7-7.62,7.63-13.32c-.18-5.78-3.63-9.94-6.77-13.7C6,121.6,3.33,118.36,3,114.08a20.16,20.16,0,0,1,1-5.85,20.52,20.52,0,0,1,2.3-5.5c2.58-3.58,6.71-4.88,11.25-6.31s9.86-3.11,13.27-7.73c2.74-5.08,1.82-10.42,1-15.24-.77-4.54-1.49-8.7.39-12.57a19.89,19.89,0,0,1,3.75-4.59,20.41,20.41,0,0,1,4.74-3.62c4-1.79,8.24-.86,12.87.17,4.79,1.06,10.09,2.24,15.35,0A15.38,15.38,0,0,0,73.76,48a31,31,0,0,0,3-6.19c.32-.83.49-1.29.66-1.75C79,35.75,80.46,31.78,84,29.37a20.74,20.74,0,0,1,5.55-2.09,20,20,0,0,1,5.9-.75c4.39.45,7.58,3.37,11.08,6.59l.13.11.74.67.75.67c5,4.45,9,6,12.28,5.08s6.09-4.69,8.41-10.8c.32-.84.49-1.3.66-1.76,1.6-4.33,3.06-8.3,6.61-10.71a25.82,25.82,0,0,1,11.45-2.84c4.39.46,7.58,3.37,11.09,6.59l.13.12.74.67.74.68c4.81,4.29,8.26,6.09,10.78,5.39s4.79-4.09,7.1-10.16c.32-.83.48-1.3.66-1.75,1.59-4.33,3.05-8.29,6.61-10.7A20,20,0,0,1,191,2.29a20,20,0,0,1,5.9-.76c4.39.46,7.58,3.38,11.08,6.59l.13.11.73.68.75.67A31.65,31.65,0,0,0,215,13.63a16.52,16.52,0,0,0,6.33,2.12c5.78-.17,9.94-3.64,13.71-6.77,3.54-2.95,6.79-5.64,11.07-6a19.92,19.92,0,0,1,5.85,1,20.32,20.32,0,0,1,5.49,2.29c3.58,2.59,4.88,6.72,6.31,11.26s3.11,9.85,7.73,13.27c5.09,2.73,10.42,1.82,15.24,1,4.54-.78,8.7-1.5,12.58.38a19.92,19.92,0,0,1,4.59,3.76,20.81,20.81,0,0,1,3.61,4.73c1.79,4,.86,8.25-.17,12.89s-2.24,10.08,0,15.33c3.05,4.94,8.13,6.82,12.72,8.51,4.33,1.6,8.3,3.06,10.71,6.62a20.6,20.6,0,0,1,2.09,5.55,21,21,0,0,1,.75,5.89c-.45,4.39-3.37,7.59-6.59,11.09s-7,7.62-7.63,13.33c.19,5.76,3.65,9.94,6.78,13.7,2.94,3.54,5.63,6.79,5.95,11.07A25.53,25.53,0,0,1,328.85,156c-2.58,3.57-6.71,4.87-11.25,6.3s-9.85,3.11-13.27,7.73c-2.73,5.09-1.81,10.42-1,15.24.78,4.54,1.49,8.7-.39,12.58a20,20,0,0,1-3.75,4.59,20.61,20.61,0,0,1-4.74,3.61c-4,1.79-8.24.87-12.88-.17s-10.07-2.24-15.33,0c-4.94,3-6.82,8.11-8.51,12.71-1.6,4.33-3.06,8.3-6.61,10.71a20.69,20.69,0,0,1-5.56,2.09,20.33,20.33,0,0,1-5.9.75c-4.29-.44-7.42-3.24-10.9-6.35-.6-.53,0,0-.64-.58-5.14-4.56-9.22-7.06-12.41-6.67-3,.36-5.66,3.53-8.2,10.31l-.35.93c-.08.22-.11.32-.34.94l-.05.17c-1.61,4.47-3.08,8.54-6.76,11a20.27,20.27,0,0,1-5.57,2.08,20.91,20.91,0,0,1-5.88.73c-4.27-.49-7.41-3.32-10.84-6.41Z"/></g></g></svg>