<svg xmlns="http://www.w3.org/2000/svg" xmlns:xlink="http://www.w3.org/1999/xlink" viewBox="0 0 629.79 349.29"><defs><style>.cls-1,.cls-14,.cls-17,.cls-9{fill:none;}.cls-1,.cls-10,.cls-11,.cls-14,.cls-17,.cls-2,.cls-3,.cls-5,.cls-6,.cls-7,.cls-8,.cls-9{stroke:#000;}.cls-1,.cls-10,.cls-14,.cls-17{stroke-miterlimit:10;}.cls-1,.cls-11,.cls-2,.cls-3,.cls-5,.cls-6,.cls-7,.cls-8,.cls-9{stroke-width:2px;}.cls-11,.cls-2,.cls-3,.cls-5,.cls-6,.cls-7,.cls-8,.cls-9{stroke-linecap:round;stroke-linejoin:round;}.cls-15,.cls-3{fill:#abafd6;}.cls-4{clip-path:url(#clip-path);}.cls-18,.cls-5{fill:#fff7b0;}.cls-12,.cls-6{fill:#f4b7d1;}.cls-13,.cls-7{fill:#be5a4b;}.cls-8{fill:#fff;}.cls-11,.cls-16{fill:#a6d07d;}.cls-17{stroke-width:0.5px;}</style><clipPath id="clip-path" transform="translate(34.37)"><path class="cls-1" d="M470,119.32s-18.95-42-57.52-45.47c-37.24,2.31-22.61,8.08-50.6,7-49.44-8.4-25.2-27.77-53.13-38.17S267.53,53.06,243.59,45,221,6.86,193.06,2.24,163.8,6.86,125.23,20.72c-41.22,9.24-58.51,0-73.14,15s2.66,33.5-2.66,42.74C36.13,103.88,9.53,98.1,5.54,116.58s12,20.79,12,58.91-20,34.13-16,58.64,17.29,21.05,26.6,38.38,5.32,46.19,30.59,56.59,33.25-6.93,69.15-11.55c38.57-3.47,37.24,28.87,75.81,23.1,37.23-5.78,42.55-42.74,70.48-47.36s55.86,10.4,73.15,4.62,1.33-30,30.57-42.07c9.32-5.28,29.27,10.89,53.21.5,29.26-8.09,64.16-88.85,64.16-88.85Z"/></clipPath></defs><g id="Layer_2" data-name="Layer 2"><g id="Layer_1-2" data-name="Layer 1"><circle class="cls-2" cx="478.97" cy="176.75" r="2.1"/><path class="cls-3" d="M470,119.29s-19-42-57.52-45.48c-37.23,2.31-22.6,8.09-50.6,7-49.44-8.4-25.2-27.78-53.13-38.17S267.51,53,243.57,44.94,221,6.82,193,2.2s-29.26,4.62-67.82,18.48c-41.23,9.24-58.52,0-73.15,15s2.66,33.49-2.66,42.73C36.1,103.84,9.51,98.07,5.52,116.55s12,20.79,12,58.9-19.95,34.14-16,58.65,17.29,21.05,26.6,38.37,5.32,46.2,30.58,56.6,33.25-6.93,69.16-11.55c38.56-3.47,37.23,28.87,75.8,23.1,37.24-5.78,42.56-42.74,70.49-47.36s55.85,10.4,73.14,4.62,1.33-30,30.58-42.07c9.32-5.28,29.27,10.89,53.2.49,29.26-8.08,64.17-88.84,64.17-88.84Z" transform="translate(34.37)"/><g class="cls-4"><path class="cls-5" d="M-29,208.2a4.32,4.32,0,0,1-2.35-.66,4.35,4.35,0,0,1-1.39-6L-2.5,153.08a4.33,4.33,0,0,1,3.62-2h0A4.35,4.35,0,0,1,4.8,153l11.57,17.48,26.7-42.83a4.33,4.33,0,0,1,7.35-.19L62,144.92,88.73,102a4.34,4.34,0,0,1,7.37,4.59L65.89,155.08A4.34,4.34,0,0,1,61.33,157l-.25-.05a4.35,4.35,0,0,1-2.74-1.85L46.91,137.87,20.27,180.62a4.36,4.36,0,0,1-4.56,2l-.24-.05a4.38,4.38,0,0,1-2.75-1.86L1.29,163.41l-26.64,42.74A4.32,4.32,0,0,1-29,208.2Z" transform="translate(34.37)"/><polygon class="cls-6" points="149.29 51.44 144.78 86.9 177.1 102.15 141.98 108.81 137.47 144.26 120.28 112.92 85.17 119.58 109.66 93.56 92.47 62.22 124.8 77.47 149.29 51.44"/><path class="cls-5" d="M463.69,314.75a3.42,3.42,0,0,1-2.35-3.11l-4-54.58L425,286.55a3.32,3.32,0,0,1-3.42.72,3.43,3.43,0,0,1-2.1-2.85l-8.72-72-28.15,28.14a3.34,3.34,0,0,1-3.32.93l0,0a3.36,3.36,0,0,1-2.26-2.66l-11.38-61a4,4,0,0,1,2.69-4.55,3.23,3.23,0,0,1,4,2.68l10.23,54.84,28.53-28.52a3.29,3.29,0,0,1,3.46-.87,3.42,3.42,0,0,1,2.19,2.87l8.76,72.38,32.66-29.75a3.29,3.29,0,0,1,3.49-.69,3.45,3.45,0,0,1,2.05,3l4.53,61.47a3.92,3.92,0,0,1-3.15,4.21A3.2,3.2,0,0,1,463.69,314.75Z" transform="translate(34.37)"/><polygon class="cls-7" points="388.75 122.27 406.31 150.31 438.41 142.28 417.17 167.65 434.73 195.69 404.04 183.33 382.79 208.7 385.07 175.69 354.37 163.32 386.47 155.28 388.75 122.27"/><path class="cls-5" d="M199.49,98A18.08,18.08,0,0,0,181.41,116,18.08,18.08,0,0,0,163.32,98a18.08,18.08,0,0,0,18.09-18.08A18.07,18.07,0,0,0,199.49,98Z" transform="translate(34.37)"/><path class="cls-5" d="M174.4,42.1a17.75,17.75,0,0,0-17.75,17.75A17.74,17.74,0,0,0,138.89,42.1a17.75,17.75,0,0,0,17.76-17.75A17.75,17.75,0,0,0,174.4,42.1Z" transform="translate(34.37)"/><path class="cls-5" d="M221.23,64.5a8.41,8.41,0,0,0-8.41,8.41,8.41,8.41,0,0,0-8.42-8.41,8.41,8.41,0,0,0,8.42-8.42A8.42,8.42,0,0,0,221.23,64.5Z" transform="translate(34.37)"/><path class="cls-8" d="M228.31,255l-58.85-5.13A7.08,7.08,0,0,1,163,242.2l4.74-54.41a7.08,7.08,0,0,1,7.67-6.44l58.85,5.13a7.08,7.08,0,0,1,6.44,7.66L236,248.56A7.09,7.09,0,0,1,228.31,255Z" transform="translate(34.37)"/><line class="cls-9" x1="201.31" y1="197.3" x2="274.26" y2="203.65"/><circle class="cls-10" cx="211.87" cy="190.6" r="2.92"/><circle class="cls-10" cx="186.48" cy="191.38" r="2.92" transform="translate(14.01 360.55) rotate(-85.02)"/><circle class="cls-10" cx="195.46" cy="192.17" r="2.92" transform="translate(21.43 370.22) rotate(-85.02)"/><polygon class="cls-11" points="258.3 177.9 271.4 197.88 203.17 249.81 234.32 252.53 282.96 215.51 295.4 234.2 322.57 173.08 258.3 177.9"/><polygon class="cls-5" points="213.02 189.71 243.49 187.92 215.74 175.21 236.01 152.4 207.41 163.03 205.61 132.56 192.9 160.31 170.09 140.04 180.72 168.64 150.25 170.44 178 183.15 157.73 205.96 186.34 195.33 188.13 225.79 200.84 198.05 223.65 218.32 213.02 189.71"/><path d="M314.29,86.39c1.19,3-1.51,7.29-7.63,12.1-.07-.45-.16-.89-.25-1.34,5.24-4.24,7.66-7.92,6.72-10.32s-5.38-3.61-12.46-3.24h-.15c-.16-.23-.32-.46-.49-.68a.61.61,0,0,1,.58-.51C308.38,82,313.11,83.37,314.29,86.39Z" transform="translate(34.37)"/><path class="cls-12" d="M306.66,98.49l.09.56a36.67,36.67,0,0,1-67.33,25.06l1.35-.1a35.48,35.48,0,0,0,64.81-24.7C306,99,306.31,98.77,306.66,98.49Z" transform="translate(34.37)"/><path d="M306.41,97.15c.09.45.18.89.25,1.34-.35.28-.71.55-1.08.82v-.08c-.07-.42-.14-.84-.22-1.25Z" transform="translate(34.37)"/><path class="cls-12" d="M306.41,97.15l-1.06.83a35.48,35.48,0,0,0-69.92,12.07,35.17,35.17,0,0,0,4.63,12.81l-1.34.1a36.55,36.55,0,0,1-4.47-12.73c-.11-.69-.19-1.37-.26-2a.59.59,0,0,0,.08-.79.51.51,0,0,0-.16-.13A36.68,36.68,0,0,1,300,82.9a.49.49,0,0,0,0,.12.6.6,0,0,0,.5.56A36.33,36.33,0,0,1,306.41,97.15Z" transform="translate(34.37)"/><path d="M305.57,99.23v.08l-1.26.93c-7.55,5.39-18.25,10.83-30.14,15.3a148.24,148.24,0,0,1-28.6,7.87c-1.45.22-2.86.4-4.21.53l-.6.07c-.25-.38-.48-.76-.71-1.15l1.19-.11c9.17-.94,20.71-3.9,32.5-8.34s22.38-9.81,29.84-15.14c.61-.43,1.2-.87,1.76-1.29C305.43,98.39,305.5,98.81,305.57,99.23Z" transform="translate(34.37)"/><path class="cls-12" d="M304.32,100.24l1.26-.93A35.48,35.48,0,0,1,240.77,124l.6-.07c1.35-.13,2.76-.31,4.21-.53a148.24,148.24,0,0,0,28.6-7.87C286.07,111.07,296.77,105.63,304.32,100.24Zm-16.15,23a3.61,3.61,0,1,0-3,4.12A3.61,3.61,0,0,0,288.17,123.21Z" transform="translate(34.37)"/><path class="cls-12" d="M305.35,98c-.56.42-1.15.86-1.76,1.29-7.46,5.33-18.06,10.72-29.84,15.14s-23.33,7.4-32.5,8.34l-1.19.11a35.17,35.17,0,0,1-4.63-12.81A35.48,35.48,0,0,1,305.35,98ZM272.46,87.11a5.62,5.62,0,1,0-4.69,6.39A5.62,5.62,0,0,0,272.46,87.11ZM257.07,105.7a3.61,3.61,0,1,0-3,4.12A3.59,3.59,0,0,0,257.07,105.7Z" transform="translate(34.37)"/><path d="M300,82.9c.17.22.33.45.49.68A.6.6,0,0,1,300,83,.49.49,0,0,1,300,82.9Z" transform="translate(34.37)"/><path d="M284.06,120.2a3.61,3.61,0,1,1-3,4.11A3.61,3.61,0,0,1,284.06,120.2Zm2.92,3.2a2.4,2.4,0,1,0-2,2.74A2.41,2.41,0,0,0,287,123.4Z" transform="translate(34.37)"/><circle class="cls-13" cx="318.98" cy="123.76" r="2.4"/><path d="M266.06,82.41a5.61,5.61,0,1,1-4.7,6.41A5.62,5.62,0,0,1,266.06,82.41Zm5.21,4.88a4.41,4.41,0,1,0-3.68,5A4.41,4.41,0,0,0,271.27,87.29Z" transform="translate(34.37)"/><path class="cls-13" d="M266.24,83.6a4.41,4.41,0,1,1-3.68,5A4.41,4.41,0,0,1,266.24,83.6Z" transform="translate(34.37)"/><path d="M253,102.69a3.61,3.61,0,1,1-3,4.11A3.59,3.59,0,0,1,253,102.69Zm2.92,3.19a2.4,2.4,0,1,0-2,2.75A2.41,2.41,0,0,0,255.88,105.88Z" transform="translate(34.37)"/><path class="cls-13" d="M253.14,103.87a2.41,2.41,0,1,1-2,2.74A2.41,2.41,0,0,1,253.14,103.87Z" transform="translate(34.37)"/><path d="M240.06,122.86c.23.39.46.77.71,1.15l-1.35.1c-.24-.37-.47-.76-.7-1.15Z" transform="translate(34.37)"/><path d="M238.72,123c.23.39.46.78.7,1.15-8.4.62-13.66-.76-14.89-3.93s1.74-7.68,8.67-12.88a.59.59,0,0,1,.71,0c0,.31.05.61.08.92a.08.08,0,0,1-.05,0c-6.26,4.71-9.26,8.91-8.25,11.51S231.36,123.41,238.72,123Z" transform="translate(34.37)"/><path d="M234.07,107.4a.59.59,0,0,1-.08.79c0-.31-.06-.61-.08-.92A.51.51,0,0,1,234.07,107.4Z" transform="translate(34.37)"/><path class="cls-1" d="M306.66,98.49l.09.56a36.67,36.67,0,0,1-67.33,25.06c-.24-.37-.47-.76-.7-1.15a36.55,36.55,0,0,1-4.47-12.73c-.11-.69-.19-1.37-.26-2,0-.31-.06-.61-.08-.92A36.68,36.68,0,0,1,300,82.9c.17.22.33.45.49.68a36.33,36.33,0,0,1,5.89,13.57C306.5,97.6,306.59,98,306.66,98.49Z" transform="translate(34.37)"/><path class="cls-14" d="M305.58,99.31l-1.26.93c-7.55,5.39-18.25,10.83-30.14,15.3a148.24,148.24,0,0,1-28.6,7.87c-1.45.22-2.86.4-4.21.53l-.6.07-1.35.1c-8.4.62-13.66-.76-14.89-3.93s1.74-7.68,8.67-12.88a.59.59,0,0,1,.71,0,.51.51,0,0,1,.16.13.59.59,0,0,1-.08.79.08.08,0,0,1-.05,0c-6.26,4.71-9.26,8.91-8.25,11.51s5.67,3.66,13,3.21l1.34-.1,1.19-.11c9.17-.94,20.71-3.9,32.5-8.34s22.38-9.81,29.84-15.14c.61-.43,1.2-.87,1.76-1.29l1.06-.83c5.24-4.24,7.66-7.92,6.72-10.32s-5.38-3.61-12.46-3.24h-.15A.6.6,0,0,1,300,83a.49.49,0,0,1,0-.12.61.61,0,0,1,.58-.51c7.77-.4,12.5,1,13.68,4s-1.51,7.29-7.63,12.1C306.31,98.77,306,99,305.58,99.31Z" transform="translate(34.37)"/><path class="cls-14" d="M266.24,83.6a4.41,4.41,0,1,0,5,3.69A4.41,4.41,0,0,0,266.24,83.6Z" transform="translate(34.37)"/><path class="cls-14" d="M285.16,127.33a3.61,3.61,0,1,1,3-4.12A3.6,3.6,0,0,1,285.16,127.33Z" transform="translate(34.37)"/><path class="cls-14" d="M253.14,103.87a2.41,2.41,0,1,0,2.74,2A2.41,2.41,0,0,0,253.14,103.87Z" transform="translate(34.37)"/><path d="M153.19,329.66l0,.1a.85.85,0,0,1-.74,1h0l-58.07,8.07a.88.88,0,0,0,.64-.45.81.81,0,0,0,0-.77l-.27-.59,56.57-7.86a51,51,0,0,0-10.57-24l.69-.68a.86.86,0,0,0,0-1.16A52.64,52.64,0,0,1,153.19,329.66Z" transform="translate(34.37)"/><path class="cls-15" d="M151.36,329.14,94.79,337h0a15.42,15.42,0,0,0-.76-1.39,6.46,6.46,0,0,0-.44-.71,4.93,4.93,0,0,0-.42-.63,6.86,6.86,0,0,0-.46-.64c-.35-.46-.72-.9-1.1-1.33q-.21-.24-.45-.48A15.19,15.19,0,0,0,90,330.7l-.59-.51c-.21-.17-.41-.35-.63-.5a7.47,7.47,0,0,0-.63-.48,7.66,7.66,0,0,0-.66-.45c-.44-.3-.89-.57-1.35-.83a21.08,21.08,0,0,0-25.2,3.5,21.52,21.52,0,0,0-2.64,3.23c-.15.24-.31.47-.45.71s-.29.48-.41.72-.28.49-.4.74-.25.5-.35.75-.25.53-.36.81-.2.49-.28.74-.19.52-.27.78a8.1,8.1,0,0,0-.24.8c-.07.23-.14.48-.19.7s-.14.62-.2.92a1.29,1.29,0,0,0,0,.19L21.44,347.2a51.2,51.2,0,0,1,43.73-56.84l28.62-4a51,51,0,0,1,11.77-.27c0,.3-.09.6-.13.89s-.07.5-.08.74,0,.53-.06.8,0,.4,0,.6,0,.45,0,.68,0,.21,0,.32a2.67,2.67,0,0,0,0,.4c0,.24,0,.49,0,.73a4.89,4.89,0,0,0,0,.55l.09.81a21.13,21.13,0,0,0,28.16,16.92l.7-.28c.27-.1.53-.21.8-.34s.49-.22.74-.36a0,0,0,0,0,.05,0,5.52,5.52,0,0,0,.72-.38s0,0,0,0c.2-.11.4-.22.58-.34s.61-.37.9-.57.4-.27.6-.42.56-.41.82-.63.34-.27.5-.41l.75-.67A51,51,0,0,1,151.36,329.14Zm-46.53-11.62a5.2,5.2,0,1,0-4.44,5.87A5.21,5.21,0,0,0,104.83,317.52ZM82.81,306a8.09,8.09,0,1,0-6.9,9.13A8.11,8.11,0,0,0,82.81,306ZM47.18,322.61a5.2,5.2,0,1,0-4.43,5.88A5.2,5.2,0,0,0,47.18,322.61Z" transform="translate(34.37)"/><path d="M141.52,303.27a.86.86,0,0,1,0,1.16l-.69.68-.75.67c-.16.14-.32.28-.5.41s-.53.43-.82.63a6.42,6.42,0,0,1-.6.42q-.44.3-.9.57c-.18.12-.38.23-.58.34,0,0,0,0,0,0-.24.14-.47.26-.72.38a0,0,0,0,1-.05,0c-.25.13-.49.25-.74.36s-.54.23-.8.34l-.7.28a21.13,21.13,0,0,1-28.16-16.92l-.09-.81a5.35,5.35,0,0,1,0-.55c0-.24,0-.49,0-.73a2.67,2.67,0,0,1,0-.4c0-.11,0-.21,0-.32s0-.46,0-.68,0-.4,0-.6,0-.53.06-.8.05-.49.08-.74.09-.59.13-.89.13-.65.2-1a.85.85,0,0,1,.92-.67h0a.8.8,0,0,1,.61.36.82.82,0,0,1,.13.68c0,.25-.11.51-.14.77h0a.11.11,0,0,0,0,.08,16.85,16.85,0,0,0-.22,1.72,8.27,8.27,0,0,0,0,.86c0,.25,0,.5,0,.75v.16c0,.27,0,.54,0,.81s0,.57.06.86.06.58.1.87A19.38,19.38,0,0,0,129,308.91q.75-.11,1.5-.27l.09,0a6.82,6.82,0,0,0,.78-.19,18.68,18.68,0,0,0,3.77-1.44l.55-.29c.38-.21.76-.44,1.13-.69.17-.1.33-.22.5-.33a18.34,18.34,0,0,0,2.34-1.9l.55-.55a.93.93,0,0,1,.66-.27A.88.88,0,0,1,141.52,303.27Z" transform="translate(34.37)"/><path d="M141.52,303.27a.88.88,0,0,0-.63-.32.93.93,0,0,0-.66.27l-.55.55a50.87,50.87,0,0,0-32.38-17.48c0-.26.09-.52.14-.77a.82.82,0,0,0-.13-.68.8.8,0,0,0-.61-.36A52.58,52.58,0,0,1,141.52,303.27Z" transform="translate(34.37)"/><path d="M139.54,306.19c.18-.13.34-.27.5-.41C139.88,305.92,139.72,306.06,139.54,306.19Z" transform="translate(34.37)"/><path class="cls-12" d="M139.68,303.77a18.34,18.34,0,0,1-2.34,1.9c-.17.11-.33.23-.5.33-.37.25-.75.48-1.13.69-.18.1-.36.2-.55.29a18.68,18.68,0,0,1-3.77,1.44,7.38,7.38,0,0,1-.78.19l-.09,0q-.75.17-1.5.27a19.38,19.38,0,0,1-21.84-16.51c0-.29-.07-.58-.1-.87s0-.57-.06-.86,0-.54,0-.81v-.16c0-.25,0-.5,0-.75s0-.57,0-.86a16.85,16.85,0,0,1,.22-1.72.24.24,0,0,1,0-.08A50.87,50.87,0,0,1,139.68,303.77Z" transform="translate(34.37)"/><path d="M138.12,307.24a6.42,6.42,0,0,0,.6-.42C138.52,307,138.33,307.11,138.12,307.24Z" transform="translate(34.37)"/><path d="M136.84,306c.17-.1.33-.22.5-.33C137.17,305.78,137,305.9,136.84,306Z" transform="translate(34.37)"/><path d="M136.64,308.15c.2-.11.4-.22.58-.34C137,307.93,136.84,308,136.64,308.15Z" transform="translate(34.37)"/><path d="M135.9,308.54c.25-.12.48-.24.72-.38A5.52,5.52,0,0,1,135.9,308.54Z" transform="translate(34.37)"/><path d="M135.16,307c.19-.09.37-.19.55-.29Z" transform="translate(34.37)"/><path d="M135.85,308.57c-.25.14-.49.25-.74.36C135.36,308.82,135.6,308.7,135.85,308.57Z" transform="translate(34.37)"/><path d="M134.31,309.27c.26-.11.53-.21.8-.34C134.84,309.06,134.58,309.17,134.31,309.27Z" transform="translate(34.37)"/><path d="M133.61,309.55l.7-.28Z" transform="translate(34.37)"/><path d="M130.61,308.61a7.38,7.38,0,0,0,.78-.19A6.82,6.82,0,0,1,130.61,308.61Z" transform="translate(34.37)"/><path d="M129,308.91q.75-.11,1.5-.27Q129.77,308.81,129,308.91Z" transform="translate(34.37)"/><path d="M106.14,201.7a.88.88,0,0,1,.06.91L95,224.08l16.67,17.6a.86.86,0,0,1-.51,1.45l-50.66,7-.24-1.72,49-6.81L93.27,224.83a.9.9,0,0,1-.14-1l10.75-20.54-49,6.81-.12-.85a.86.86,0,0,0-1-.74l51.52-7.17A.9.9,0,0,1,106.14,201.7Z" transform="translate(34.37)"/><path class="cls-16" d="M103.88,203.29,93.13,223.83a.9.9,0,0,0,.14,1l15.94,16.81-49,6.81L54.89,210.1Z" transform="translate(34.37)"/><path d="M107.3,286.29a.24.24,0,0,0,0,.08.11.11,0,0,1,0-.08Z" transform="translate(34.37)"/><path d="M106.68,284.48a.85.85,0,0,0-.92.67c-.07.31-.14.64-.2,1a51,51,0,0,0-11.77.27l-28.62,4a.88.88,0,0,0,.74-1l-.12-.85,27.76-3.86A52.48,52.48,0,0,1,106.68,284.48Z" transform="translate(34.37)"/><path d="M107.06,288.09c0,.29,0,.57,0,.86A8.27,8.27,0,0,1,107.06,288.09Z" transform="translate(34.37)"/><path d="M107,289c0,.25,0,.5,0,.75C107,289.45,107,289.2,107,289Z" transform="translate(34.37)"/><path d="M107,289.86c0,.27,0,.54,0,.81C107,290.4,107,290.13,107,289.86Z" transform="translate(34.37)"/><path d="M107,290.67c0,.29,0,.57.06.86C107.05,291.24,107,291,107,290.67Z" transform="translate(34.37)"/><path d="M107.08,291.53c0,.29.06.58.1.87C107.14,292.11,107.11,291.82,107.08,291.53Z" transform="translate(34.37)"/><path d="M105.56,286.11c0,.3-.09.6-.13.89C105.47,286.71,105.52,286.41,105.56,286.11Z" transform="translate(34.37)"/><path d="M105.35,287.74c0,.27,0,.53-.06.8C105.3,288.27,105.32,288,105.35,287.74Z" transform="translate(34.37)"/><path d="M105.29,288.54q0,.3,0,.6Q105.26,288.84,105.29,288.54Z" transform="translate(34.37)"/><path d="M105.26,289.14c0,.22,0,.44,0,.68C105.25,289.59,105.25,289.36,105.26,289.14Z" transform="translate(34.37)"/><path d="M105.26,290.14a2.67,2.67,0,0,0,0,.4A2.67,2.67,0,0,1,105.26,290.14Z" transform="translate(34.37)"/><path d="M105.31,291.27a5.35,5.35,0,0,0,0,.55A4.89,4.89,0,0,1,105.31,291.27Z" transform="translate(34.37)"/><path d="M99,313.08A5.2,5.2,0,1,1,94.52,319,5.21,5.21,0,0,1,99,313.08Zm4.15,4.68a3.47,3.47,0,1,0-3,3.91A3.45,3.45,0,0,0,103.11,317.76Z" transform="translate(34.37)"/><path class="cls-12" d="M99.19,314.81a3.46,3.46,0,1,1-3,3.9A3.45,3.45,0,0,1,99.19,314.81Z" transform="translate(34.37)"/><path d="M95.06,337.59a.81.81,0,0,1,0,.77.88.88,0,0,1-.64.45.87.87,0,0,1-.9-.5c-.16-.35-.33-.7-.52-1.05a6.65,6.65,0,0,0-.33-.58,20.05,20.05,0,0,0-1.73-2.52l-.48-.56a19.45,19.45,0,0,0-5.75-4.46l-.65-.32h0c-.23-.11-.44-.2-.67-.29l-.39-.17-.57-.21a15.54,15.54,0,0,0-2.21-.65,4.71,4.71,0,0,0-.54-.12,4.37,4.37,0,0,0-.5-.09,12.24,12.24,0,0,0-1.48-.2c-.24,0-.47,0-.72-.06s-.49,0-.75,0h-.63c-.27,0-.53,0-.79,0s-.42,0-.63.05l-.94.1-.94.16c-.21,0-.41.08-.62.13s-.51.11-.76.19-.41.1-.61.17l-.71.23-.68.26a13.79,13.79,0,0,0-1.37.59l-.45.23c-.16.08-.33.16-.49.26-.49.27-1,.56-1.43.86l-.51.37q-.28.19-.57.42c-.3.22-.58.46-.87.7l-.49.46a6.44,6.44,0,0,0-.53.51c-.17.17-.34.33-.5.52-.33.36-.65.72-1,1.1-.16.19-.3.38-.45.59a19.69,19.69,0,0,0-1.55,2.47c-.12.22-.23.44-.33.67s-.21.44-.31.66a19.31,19.31,0,0,0-.76,2.09l-.21.72c-.06.25-.12.5-.17.73-.09.39-.15.77-.21,1.15a.87.87,0,0,1-1.48.48.81.81,0,0,1-.23-.73c0-.28.09-.55.14-.83s.12-.61.2-.92.12-.47.19-.7.15-.53.24-.8.18-.53.27-.78.18-.5.28-.74.23-.55.36-.81.23-.5.35-.75.26-.49.4-.74.27-.49.41-.72l.45-.71A21.52,21.52,0,0,1,61,331.43a21.08,21.08,0,0,1,25.2-3.5c.46.26.91.53,1.35.83.23.14.44.29.66.45s.43.32.63.48.42.33.63.5l.59.51a15.19,15.19,0,0,1,1.14,1.13l.45.48c.38.43.75.87,1.1,1.33.16.21.31.42.46.64s.29.42.42.63a6.46,6.46,0,0,1,.44.71c.28.45.52.91.76,1.39h0Z" transform="translate(34.37)"/><path d="M94.78,337c-.24-.48-.48-.94-.76-1.39A15.42,15.42,0,0,1,94.78,337Z" transform="translate(34.37)"/><path d="M94.39,338.81,56,344.14a.86.86,0,0,0,.74-.73c.06-.38.12-.76.21-1.15l36-5c.19.35.36.7.52,1.05A.87.87,0,0,0,94.39,338.81Z" transform="translate(34.37)"/><path d="M93.58,334.91c-.13-.21-.27-.43-.42-.63A4.93,4.93,0,0,1,93.58,334.91Z" transform="translate(34.37)"/><path d="M93.16,334.28c-.15-.22-.3-.43-.46-.64A6.86,6.86,0,0,1,93.16,334.28Z" transform="translate(34.37)"/><path d="M93,337.26c-.11-.2-.22-.4-.33-.58A6.65,6.65,0,0,1,93,337.26Z" transform="translate(34.37)"/><path class="cls-12" d="M92.64,336.68c.11.18.22.38.33.58l-36,5c.06-.25.12-.49.17-.73l.21-.72a19.31,19.31,0,0,1,.76-2.09c.1-.22.2-.45.31-.66s.21-.45.33-.67a19.69,19.69,0,0,1,1.55-2.47c.15-.21.29-.4.45-.59.3-.38.62-.74,1-1.1.16-.18.33-.35.5-.52a6.44,6.44,0,0,1,.53-.51l.49-.46c.29-.24.57-.48.87-.7s.38-.29.57-.42l.51-.37c.46-.3.94-.59,1.43-.86.16-.1.33-.18.49-.26l.45-.23a13.79,13.79,0,0,1,1.37-.59c.22-.09.45-.19.68-.26l.71-.23c.2-.07.41-.12.61-.17s.51-.13.76-.19.41-.1.62-.13l.94-.16.94-.1c.21,0,.42,0,.63-.05s.52,0,.79,0h.63c.26,0,.5,0,.75,0a5.83,5.83,0,0,1,.72.06,12.24,12.24,0,0,1,1.48.2,4.37,4.37,0,0,1,.5.09,4.71,4.71,0,0,1,.54.12,15.54,15.54,0,0,1,2.21.65l.57.21.39.17.67.29h0l.65.32a19.45,19.45,0,0,1,5.75,4.46l.48.56A20.05,20.05,0,0,1,92.64,336.68Z" transform="translate(34.37)"/><path d="M91.6,332.31l-.45-.48Q91.39,332.07,91.6,332.31Z" transform="translate(34.37)"/><path d="M90.91,334.16l-.48-.56Z" transform="translate(34.37)"/><path d="M90,330.7l-.59-.51Z" transform="translate(34.37)"/><path d="M89.42,330.19c-.21-.17-.41-.34-.63-.5C89,329.84,89.21,330,89.42,330.19Z" transform="translate(34.37)"/><path d="M88.79,329.69c-.2-.16-.41-.33-.63-.48A7.47,7.47,0,0,1,88.79,329.69Z" transform="translate(34.37)"/><path d="M88.16,329.21c-.22-.16-.43-.31-.66-.45A7.66,7.66,0,0,1,88.16,329.21Z" transform="translate(34.37)"/><path d="M84.68,329.14l-.65-.32Z" transform="translate(34.37)"/><path d="M84,328.82l-.67-.29C83.58,328.62,83.79,328.71,84,328.82Z" transform="translate(34.37)"/><path d="M73.68,299.1a8.09,8.09,0,1,1-6.9,9.13A8.11,8.11,0,0,1,73.68,299.1Zm7.41,7.14a6.36,6.36,0,1,0-5.42,7.16A6.37,6.37,0,0,0,81.09,306.24Z" transform="translate(34.37)"/><path d="M83,328.36l-.57-.21Z" transform="translate(34.37)"/><path class="cls-12" d="M73.92,300.81A6.36,6.36,0,1,1,68.49,308,6.37,6.37,0,0,1,73.92,300.81Z" transform="translate(34.37)"/><path d="M80.18,327.5a4.71,4.71,0,0,0-.54-.12A4.71,4.71,0,0,1,80.18,327.5Z" transform="translate(34.37)"/><path d="M79.64,327.38a4.37,4.37,0,0,0-.5-.09A4.37,4.37,0,0,1,79.64,327.38Z" transform="translate(34.37)"/><path d="M77.66,327.09a5.83,5.83,0,0,0-.72-.06C77.19,327,77.42,327.06,77.66,327.09Z" transform="translate(34.37)"/><path d="M76.94,327c-.25,0-.49,0-.75,0Q76.58,327,76.94,327Z" transform="translate(34.37)"/><path d="M75.56,327c-.27,0-.53,0-.79,0C75,327,75.29,327,75.56,327Z" transform="translate(34.37)"/><path d="M74.77,327c-.21,0-.42,0-.63.05C74.35,327,74.56,327,74.77,327Z" transform="translate(34.37)"/><path d="M72.26,327.33c-.21,0-.41.08-.62.13C71.85,327.41,72.05,327.36,72.26,327.33Z" transform="translate(34.37)"/><path d="M71.64,327.46c-.25.06-.51.11-.76.19C71.13,327.57,71.39,327.52,71.64,327.46Z" transform="translate(34.37)"/><path d="M65.79,288.53l.12.85a.87.87,0,0,1-1.72.24l-.11-.85.85-.13Z" transform="translate(34.37)"/><path d="M60.46,250.17l5.33,38.36-.86.11-.85.13-5.45-39.22a.85.85,0,0,0,1,.74Z" transform="translate(34.37)"/><path d="M60.22,248.45l.24,1.72-.86.12a.85.85,0,0,1-1-.74l-5.57-40.06a.86.86,0,1,1,1.71-.24l.12.85Z" transform="translate(34.37)"/><path d="M70.27,327.82l-.71.23Z" transform="translate(34.37)"/><path d="M64.19,289.62a.88.88,0,0,0,1,.74A51.2,51.2,0,0,0,21.44,347.2l33.68-4.68a1.29,1.29,0,0,1,0-.19c0,.28-.1.55-.14.83a.81.81,0,0,0,.23.73.86.86,0,0,0,.74.25L20.81,349a.85.85,0,0,1-1-.73,52.94,52.94,0,0,1,44.24-59.53Z" transform="translate(34.37)"/><path d="M69.56,328.05c-.23.07-.46.17-.68.26Z" transform="translate(34.37)"/><path d="M67.51,328.9l-.45.23Z" transform="translate(34.37)"/><path d="M67.06,329.13c-.16.08-.33.16-.49.26C66.73,329.29,66.9,329.21,67.06,329.13Z" transform="translate(34.37)"/><path d="M65.14,330.25l-.51.37Z" transform="translate(34.37)"/><path d="M64.63,330.62q-.28.19-.57.42Q64.35,330.81,64.63,330.62Z" transform="translate(34.37)"/><path d="M63.19,331.74l-.49.46Z" transform="translate(34.37)"/><path d="M62.17,332.71c-.17.17-.34.34-.5.52C61.83,333,62,332.88,62.17,332.71Z" transform="translate(34.37)"/><path d="M60.72,334.33c-.16.19-.3.38-.45.59C60.42,334.71,60.56,334.52,60.72,334.33Z" transform="translate(34.37)"/><path d="M58.72,337.39c-.12.22-.23.44-.33.67C58.49,337.83,58.6,337.61,58.72,337.39Z" transform="translate(34.37)"/><path d="M58.31,334.66l-.45.71C58,335.13,58.16,334.9,58.31,334.66Z" transform="translate(34.37)"/><path d="M58.39,338.06c-.11.21-.21.44-.31.66C58.18,338.5,58.28,338.27,58.39,338.06Z" transform="translate(34.37)"/><path d="M57.86,335.37c-.14.23-.28.47-.41.72C57.57,335.85,57.71,335.61,57.86,335.37Z" transform="translate(34.37)"/><path d="M57.05,336.83c-.12.25-.24.5-.35.75C56.8,337.33,56.93,337.08,57.05,336.83Z" transform="translate(34.37)"/><path d="M57.32,340.81l-.21.72Z" transform="translate(34.37)"/><path d="M57.11,341.53c0,.24-.11.48-.17.73C57,342,57.05,341.78,57.11,341.53Z" transform="translate(34.37)"/><path d="M56.34,338.39c-.1.24-.19.48-.28.74C56.14,338.88,56.24,338.64,56.34,338.39Z" transform="translate(34.37)"/><path d="M56.06,339.13c-.09.25-.19.52-.27.78C55.87,339.65,56,339.38,56.06,339.13Z" transform="translate(34.37)"/><path d="M55.79,339.91c-.09.27-.17.53-.24.8A8.1,8.1,0,0,1,55.79,339.91Z" transform="translate(34.37)"/><path d="M55.55,340.71c-.07.23-.13.46-.19.7C55.41,341.19,55.48,340.94,55.55,340.71Z" transform="translate(34.37)"/><path d="M41.32,318.18A5.2,5.2,0,1,1,36.88,324,5.2,5.2,0,0,1,41.32,318.18Zm4.15,4.67a3.46,3.46,0,1,0-3,3.91A3.46,3.46,0,0,0,45.47,322.85Z" transform="translate(34.37)"/><path class="cls-12" d="M41.56,319.9a3.46,3.46,0,1,1-3,3.9A3.46,3.46,0,0,1,41.56,319.9Z" transform="translate(34.37)"/><path class="cls-17" d="M60.22,248.45l.24,1.72,5.33,38.36.12.85a.87.87,0,0,1-1.72.24l-.11-.85-5.45-39.22" transform="translate(34.37)"/><path class="cls-17" d="M53.79,208.51a.86.86,0,0,1,1,.74l.12.85" transform="translate(34.37)"/><path class="cls-17" d="M53.79,208.51l51.52-7.17a.9.9,0,0,1,.83.36.88.88,0,0,1,.06.91L95,224.08l16.67,17.6a.86.86,0,0,1-.51,1.45l-50.66,7-.86.12a.85.85,0,0,1-1-.74l-5.57-40.06A.86.86,0,0,1,53.79,208.51Z" transform="translate(34.37)"/><path class="cls-17" d="M60.22,248.45l49-6.81L93.27,224.83a.9.9,0,0,1-.14-1l10.75-20.54-49,6.81Z" transform="translate(34.37)"/><path class="cls-17" d="M139.68,303.77l.55-.55a.93.93,0,0,1,.66-.27.88.88,0,0,1,.63.32,52.64,52.64,0,0,1,11.67,26.39l0,.1a.85.85,0,0,1-.74,1h0l-58.07,8.07a.87.87,0,0,1-.9-.5c-.16-.35-.33-.7-.52-1.05a6.65,6.65,0,0,0-.33-.58" transform="translate(34.37)"/><path class="cls-17" d="M136.84,306c.17-.1.33-.22.5-.33" transform="translate(34.37)"/><path class="cls-17" d="M135.16,307c.19-.09.37-.19.55-.29" transform="translate(34.37)"/><path class="cls-17" d="M130.61,308.61a7.38,7.38,0,0,0,.78-.19" transform="translate(34.37)"/><path class="cls-17" d="M129,308.91q.75-.11,1.5-.27" transform="translate(34.37)"/><path class="cls-17" d="M107,289.86c0,.27,0,.54,0,.81s0,.57.06.86.06.58.1.87" transform="translate(34.37)"/><path class="cls-17" d="M107.06,288.09c0,.29,0,.57,0,.86s0,.5,0,.75" transform="translate(34.37)"/><path class="cls-17" d="M106.7,284.48a.8.8,0,0,1,.61.36.82.82,0,0,1,.13.68c0,.25-.11.51-.14.77a.24.24,0,0,0,0,.08" transform="translate(34.37)"/><path class="cls-17" d="M57.32,340.81l-.21.72c-.06.25-.12.5-.17.73-.09.39-.15.77-.21,1.15a.86.86,0,0,1-.74.73L20.81,349a.85.85,0,0,1-1-.73,52.94,52.94,0,0,1,44.24-59.53l.85-.13.86-.11,27.76-3.86a52.48,52.48,0,0,1,13.13-.19" transform="translate(34.37)"/><path class="cls-17" d="M58.72,337.39c-.12.22-.23.44-.33.67s-.21.44-.31.66" transform="translate(34.37)"/><path class="cls-17" d="M60.72,334.33c-.16.19-.3.38-.45.59" transform="translate(34.37)"/><path class="cls-17" d="M62.17,332.71c-.17.17-.34.33-.5.52" transform="translate(34.37)"/><path class="cls-17" d="M63.19,331.74l-.49.46" transform="translate(34.37)"/><path class="cls-17" d="M65.14,330.25l-.51.37q-.28.19-.57.42" transform="translate(34.37)"/><path class="cls-17" d="M67.51,328.9l-.45.23c-.16.08-.33.16-.49.26" transform="translate(34.37)"/><path class="cls-17" d="M70.27,327.82l-.71.23-.68.26" transform="translate(34.37)"/><path class="cls-17" d="M72.26,327.33c-.21,0-.41.08-.62.13s-.51.11-.76.19" transform="translate(34.37)"/><path class="cls-17" d="M75.56,327c-.27,0-.53,0-.79,0s-.42,0-.63.05" transform="translate(34.37)"/><path class="cls-17" d="M77.66,327.09c-.24,0-.47,0-.72-.06s-.49,0-.75,0" transform="translate(34.37)"/><path class="cls-17" d="M80.18,327.5a4.71,4.71,0,0,0-.54-.12,4.37,4.37,0,0,0-.5-.09" transform="translate(34.37)"/><path class="cls-17" d="M83,328.36l-.57-.21" transform="translate(34.37)"/><path class="cls-17" d="M84,328.82c-.23-.11-.44-.2-.67-.29" transform="translate(34.37)"/><path class="cls-17" d="M84.68,329.14l-.65-.32" transform="translate(34.37)"/><path class="cls-17" d="M90.91,334.16l-.48-.56" transform="translate(34.37)"/><path class="cls-17" d="M94,335.62c.28.45.52.91.76,1.39" transform="translate(34.37)"/><path class="cls-17" d="M92.7,333.64c.16.21.31.42.46.64s.29.42.42.63" transform="translate(34.37)"/><path class="cls-17" d="M91.15,331.83l.45.48" transform="translate(34.37)"/><path class="cls-17" d="M87.5,328.76c.23.14.44.29.66.45s.43.32.63.48.42.33.63.5l.59.51" transform="translate(34.37)"/><path class="cls-17" d="M57.45,336.09c.12-.24.26-.48.41-.72s.3-.47.45-.71" transform="translate(34.37)"/><path class="cls-17" d="M56.7,337.58c.1-.25.23-.5.35-.75" transform="translate(34.37)"/><path class="cls-17" d="M55.36,341.41c0-.22.12-.47.19-.7a8.1,8.1,0,0,1,.24-.8c.08-.26.17-.53.27-.78s.18-.49.28-.74" transform="translate(34.37)"/><path class="cls-17" d="M105.43,287c0-.29.09-.59.13-.89a51,51,0,0,0-11.77.27l-28.62,4A51.2,51.2,0,0,0,21.44,347.2l33.68-4.68a1.29,1.29,0,0,1,0-.19" transform="translate(34.37)"/><path class="cls-17" d="M105.25,289.82c0-.23,0-.46,0-.68s0-.4,0-.6,0-.53.06-.8" transform="translate(34.37)"/><path class="cls-17" d="M105.27,290.54a2.67,2.67,0,0,1,0-.4" transform="translate(34.37)"/><path class="cls-17" d="M105.36,291.82a5.35,5.35,0,0,1,0-.55" transform="translate(34.37)"/><path class="cls-17" d="M135.85,308.57c-.25.14-.49.25-.74.36s-.53.24-.8.34l-.7.28" transform="translate(34.37)"/><path class="cls-17" d="M136.62,308.16a5.52,5.52,0,0,1-.72.38" transform="translate(34.37)"/><path class="cls-17" d="M137.22,307.81c-.18.12-.38.23-.58.34" transform="translate(34.37)"/><path class="cls-17" d="M138.72,306.82c-.2.15-.39.29-.6.42" transform="translate(34.37)"/><path class="cls-17" d="M140,305.78c-.16.14-.32.28-.5.41" transform="translate(34.37)"/><path class="cls-17" d="M94.79,337l56.57-7.86a51,51,0,0,0-10.57-24" transform="translate(34.37)"/><path class="cls-17" d="M133.61,309.55a21.13,21.13,0,0,1-28.16-16.92l-.09-.81a4.89,4.89,0,0,1,0-.55c0-.24,0-.49,0-.73a2.67,2.67,0,0,1,0-.4c0-.11,0-.21,0-.32s0-.46,0-.68,0-.4,0-.6,0-.53.06-.8.05-.49.08-.74.09-.59.13-.89.13-.65.2-1a.85.85,0,0,1,.92-.67h0a52.58,52.58,0,0,1,34.82,18.79.86.86,0,0,1,0,1.16l-.69.68-.75.67c-.16.14-.32.28-.5.41s-.53.43-.82.63a6.42,6.42,0,0,1-.6.42q-.44.3-.9.57c-.18.12-.38.23-.58.34,0,0,0,0,0,0-.24.14-.47.26-.72.38a0,0,0,0,1-.05,0c-.25.13-.49.25-.74.36s-.54.23-.8.34Z" transform="translate(34.37)"/><path class="cls-17" d="M107.3,286.29h0a.11.11,0,0,0,0,.08,16.85,16.85,0,0,0-.22,1.72,8.27,8.27,0,0,0,0,.86c0,.25,0,.5,0,.75v.16c0,.27,0,.54,0,.81s0,.57.06.86.06.58.1.87A19.38,19.38,0,0,0,129,308.91q.75-.11,1.5-.27l.09,0a6.82,6.82,0,0,0,.78-.19,18.68,18.68,0,0,0,3.77-1.44l.55-.29c.38-.21.76-.44,1.13-.69.17-.1.33-.22.5-.33a18.34,18.34,0,0,0,2.34-1.9A50.87,50.87,0,0,0,107.3,286.29Z" transform="translate(34.37)"/><path class="cls-17" d="M94.39,338.81,56,344.14a.86.86,0,0,1-.74-.25.81.81,0,0,1-.23-.73c0-.28.09-.55.14-.83s.12-.61.2-.92.12-.47.19-.7.15-.53.24-.8.18-.53.27-.78.18-.5.28-.74.23-.55.36-.81.23-.5.35-.75.26-.49.4-.74.27-.49.41-.72l.45-.71A21.52,21.52,0,0,1,61,331.43a21.08,21.08,0,0,1,25.2-3.5c.46.26.91.53,1.35.83a7.66,7.66,0,0,1,.66.45,7.47,7.47,0,0,1,.63.48c.22.15.42.33.63.5l.59.51a15.19,15.19,0,0,1,1.14,1.13q.24.24.45.48c.38.43.75.87,1.1,1.33a6.86,6.86,0,0,1,.46.64,4.93,4.93,0,0,1,.42.63,6.46,6.46,0,0,1,.44.71,15.42,15.42,0,0,1,.76,1.39h0l.27.59a.81.81,0,0,1,0,.77A.88.88,0,0,1,94.39,338.81Z" transform="translate(34.37)"/><path class="cls-17" d="M56.94,342.26l36-5c-.11-.2-.22-.4-.33-.58a20.05,20.05,0,0,0-1.73-2.52l-.48-.56a19.45,19.45,0,0,0-5.75-4.46l-.65-.32h0l-.67-.29-.39-.17-.57-.21a15.54,15.54,0,0,0-2.21-.65,4.71,4.71,0,0,0-.54-.12,4.37,4.37,0,0,0-.5-.09,12.24,12.24,0,0,0-1.48-.2,5.83,5.83,0,0,0-.72-.06c-.25,0-.49,0-.75,0h-.63c-.27,0-.53,0-.79,0s-.42,0-.63.05l-.94.1-.94.16c-.21,0-.41.08-.62.13s-.51.11-.76.19-.41.1-.61.17l-.71.23c-.23.07-.46.17-.68.26a13.79,13.79,0,0,0-1.37.59l-.45.23c-.16.08-.33.16-.49.26-.49.27-1,.56-1.43.86l-.51.37q-.28.19-.57.42c-.3.22-.58.46-.87.7l-.49.46a6.44,6.44,0,0,0-.53.51c-.17.17-.34.34-.5.52-.33.36-.65.72-1,1.1-.16.19-.3.38-.45.59a19.69,19.69,0,0,0-1.55,2.47c-.12.22-.23.44-.33.67s-.21.44-.31.66a19.31,19.31,0,0,0-.76,2.09l-.21.72C57.06,341.77,57,342,56.94,342.26Z" transform="translate(34.37)"/><circle class="cls-17" cx="109.17" cy="307.11" r="8.09"/><path class="cls-17" d="M73.92,300.81a6.36,6.36,0,1,0,7.17,5.43A6.37,6.37,0,0,0,73.92,300.81Z" transform="translate(34.37)"/><path class="cls-17" d="M42.75,328.49a5.2,5.2,0,1,1,4.43-5.88A5.23,5.23,0,0,1,42.75,328.49Z" transform="translate(34.37)"/><path class="cls-17" d="M41.56,319.9a3.46,3.46,0,1,0,3.91,3A3.45,3.45,0,0,0,41.56,319.9Z" transform="translate(34.37)"/><path class="cls-17" d="M100.39,323.39a5.2,5.2,0,1,1,4.44-5.87A5.22,5.22,0,0,1,100.39,323.39Z" transform="translate(34.37)"/><path class="cls-17" d="M99.19,314.81a3.46,3.46,0,1,0,3.92,2.95A3.46,3.46,0,0,0,99.19,314.81Z" transform="translate(34.37)"/><path class="cls-18" d="M321.38,228.2c13.9,2.65,23.16,15.38,20.66,28.43-3.21,16.81-13.3,15.53-15.83,24.82l1.16.22-1.31,6.88-2.23-.43L322.9,293c-1.27,6.61-6.48,7.65-11.45,7.25-.23,1.19-2.32,1.7-4.1,1.36s-3.53-1.58-3.3-2.78c-4.78-1.45-9.24-4.34-8-10.95L297,283l-2.23-.43,1.31-6.88,1.17.22c1.09-9.66-8.79-12.08-5.57-28.9C294.18,234,307.47,225.54,321.38,228.2Zm19.51,28.21c3.27-17.09-12.2-25.62-19.73-27.06-7.92-1.52-25.11,1.07-28.32,17.88-3.12,16.29,7.35,19.58,5.58,28.87l12.74,2.44,2.95-15.43-8.4-11.56,1-.69,8.22,11.32,11.82-7.49.63,1-12.07,7.65-2.95,15.43,12.75,2.43C326.8,272.1,337.74,272.89,340.89,256.41Zm-15.76,30.77.87-4.58-29-5.54-.87,4.58Zm-3.39,5.59.94-4.87-24.52-4.68-.93,4.87c-1.53,8,6.75,9.71,10.7,10.47S320.2,300.86,321.74,292.77Zm-11.46,7.35c-.88-.11-1.75-.26-2.57-.41s-1.67-.34-2.53-.57a4.45,4.45,0,0,0,5.1,1Z" transform="translate(34.37)"/><path class="cls-18" d="M321.16,229.35c7.53,1.44,23,10,19.73,27.06-3.15,16.48-14.09,15.69-15.83,24.78l-12.75-2.43,2.95-15.43,12.07-7.65-.63-1-11.82,7.49-8.22-11.32-1,.69,8.4,11.56-2.95,15.43-12.74-2.44c1.77-9.29-8.7-12.58-5.58-28.87C296.05,230.42,313.24,227.83,321.16,229.35Z" transform="translate(34.37)"/><polygon class="cls-18" points="360.37 282.6 359.5 287.18 330.52 281.64 331.39 277.06 360.37 282.6"/><path class="cls-18" d="M322.68,287.9l-.94,4.87c-1.54,8.09-9.85,6.54-13.81,5.79s-12.23-2.48-10.7-10.47l.93-4.87Z" transform="translate(34.37)"/><path class="cls-18" d="M307.71,299.71c.82.15,1.69.3,2.57.41a4.45,4.45,0,0,1-5.1-1C306,299.37,306.89,299.55,307.71,299.71Z" transform="translate(34.37)"/><path class="cls-1" d="M342,256.63c2.5-13-6.76-25.78-20.66-28.43S294.18,234,291.69,247c-3.22,16.82,6.66,19.24,5.57,28.9l-1.17-.22-1.31,6.88L297,283l-.93,4.87c-1.27,6.61,3.19,9.5,8,10.95-.23,1.2,1.52,2.44,3.3,2.78s3.87-.17,4.1-1.36c5,.4,10.18-.64,11.45-7.25l.93-4.87,2.23.43,1.31-6.88-1.16-.22C328.74,272.16,338.83,273.44,342,256.63Z" transform="translate(34.37)"/><path d="M288.8,237.29l-9.62-2.62-1.38-.38a1.13,1.13,0,0,0-.6,2.17l9.62,2.62,1.38.38a1.13,1.13,0,0,0,.6-2.17Z" transform="translate(34.37)"/><path d="M301.47,226.81l-5.24-9.62-.76-1.38c-.69-1.27-2.64-.14-1.94,1.13l5.24,9.61.76,1.39c.69,1.27,2.64.14,1.94-1.13Z" transform="translate(34.37)"/><path d="M321.63,224.37l.87-12.23.13-1.77c.1-1.44-2.15-1.43-2.25,0l-.88,12.24-.12,1.76c-.11,1.45,2.14,1.44,2.25,0Z" transform="translate(34.37)"/><path d="M341.3,233.17l7.88-6.13,1.12-.87a1.13,1.13,0,0,0,0-1.59,1.16,1.16,0,0,0-1.6,0l-7.88,6.13-1.12.87a1.13,1.13,0,0,0,0,1.59,1.17,1.17,0,0,0,1.6,0Z" transform="translate(34.37)"/><path d="M346.5,252.5h8a1.13,1.13,0,1,0,0-2.25h-8a1.13,1.13,0,0,0,0,2.25Z" transform="translate(34.37)"/><path d="M343.2,268.46l5.26,1.75.74.25a1.13,1.13,0,0,0,.6-2.17l-5.26-1.75-.74-.25a1.12,1.12,0,0,0-1.38.79,1.14,1.14,0,0,0,.78,1.38Z" transform="translate(34.37)"/><path d="M334.7,276.17l3.51,3.5.49.5a1.13,1.13,0,1,0,1.6-1.59l-3.51-3.5-.49-.5a1.13,1.13,0,0,0-1.6,1.59Z" transform="translate(34.37)"/><path d="M288.5,253.25l-7,.88-1,.12a1.15,1.15,0,0,0-1.12,1.12c0,.55.51,1.21,1.12,1.13l7-.88,1-.12a1.17,1.17,0,0,0,1.13-1.13,1.13,1.13,0,0,0-1.13-1.12Z" transform="translate(34.37)"/><path d="M289.93,265.4,285.55,268l-.62.37a1.13,1.13,0,0,0,1.14,2l4.38-2.63.62-.37a1.13,1.13,0,0,0-1.14-2Z" transform="translate(34.37)"/><line class="cls-1" x1="330.37" y1="275.87" x2="361.37" y2="281.87"/><line class="cls-1" x1="346.37" y1="278.87" x2="349.37" y2="261.87"/><line class="cls-1" x1="340.37" y1="250.87" x2="349.37" y2="262.87"/><line class="cls-1" x1="361.37" y1="253.87" x2="349.37" y2="262.87"/><line class="cls-1" x1="328.37" y1="281.87" x2="360.37" y2="287.87"/><path class="cls-5" d="M427,111a18.08,18.08,0,0,0-18.08,18.08A18.08,18.08,0,0,0,390.83,111a18.08,18.08,0,0,0,18.09-18.08A18.08,18.08,0,0,0,427,111Z" transform="translate(34.37)"/><path class="cls-5" d="M231,298.1a13,13,0,0,0-13,13,13,13,0,0,0-13-13,13,13,0,0,0,13-13A13,13,0,0,0,231,298.1Z" transform="translate(34.37)"/><path class="cls-5" d="M190,283a18.08,18.08,0,0,0-18.08,18.08A18.08,18.08,0,0,0,153.83,283a18.08,18.08,0,0,0,18.09-18.08A18.08,18.08,0,0,0,190,283Z" transform="translate(34.37)"/></g><path class="cls-1" d="M470,119.32s-18.95-42-57.52-45.47c-37.24,2.31-22.61,8.08-50.6,7-49.44-8.4-25.2-27.77-53.13-38.17S267.53,53.06,243.59,45,221,6.86,193.06,2.24,163.8,6.86,125.23,20.72c-41.22,9.24-58.51,0-73.14,15s2.66,33.5-2.66,42.74C36.13,103.88,9.53,98.1,5.54,116.58s12,20.79,12,58.91-20,34.13-16,58.64,17.29,21.05,26.6,38.38,5.32,46.19,30.59,56.59,33.25-6.93,69.15-11.55c38.57-3.47,37.24,28.87,75.81,23.1,37.23-5.78,42.55-42.74,70.48-47.36s55.86,10.4,73.15,4.62,1.33-30,30.57-42.07c9.32-5.28,29.27,10.89,53.21.5,29.26-8.09,64.16-88.85,64.16-88.85Z" transform="translate(34.37)"/><circle class="cls-6" cx="547.67" cy="166.35" r="59.1"/><ellipse class="cls-8" cx="547.67" cy="165.65" rx="30.3" ry="38.6"/><path class="cls-2" d="M515.8,167.75a57.21,57.21,0,0,0-14.1-37.7c-11,5.8-18.7,19.6-18.7,35.6,0,17.3,8.9,31.9,21.2,36.8A57.25,57.25,0,0,0,515.8,167.75Z" transform="translate(34.37)"/><path class="cls-5" d="M523.1,85.75a81.19,81.19,0,1,0,11.1,159.1l16.6,31.2a141.89,141.89,0,0,0,22.9-8.2l-17.4-32.7a81.19,81.19,0,0,0-33.2-149.4Zm45.6,87.3a55.7,55.7,0,1,1-48.6-62A55.76,55.76,0,0,1,568.7,173.05Z" transform="translate(34.37)"/><path class="cls-9" d="M540.2,199.15a30.53,30.53,0,0,1-13.2,9.5" transform="translate(34.37)"/><path class="cls-9" d="M513.3,98.15a68.28,68.28,0,0,0-24.8,4.6,69.78,69.78,0,0,0-44.9,65.1" transform="translate(34.37)"/></g></g></svg>