<svg height='100px' width='100px'  fill="#333333" xmlns="http://www.w3.org/2000/svg" xmlns:xlink="http://www.w3.org/1999/xlink" version="1.1" x="0px" y="0px" viewBox="0 0 91 91" style="enable-background:new 0 0 91 91;" xml:space="preserve"><g><polygon points="47.4,46.2 69.1,28.1 25.7,28.1  "></polygon><path d="M26.7,44.5l-16.7,0c-0.9,0-1.7,0.8-1.7,1.7s0.8,1.7,1.7,1.7h21.7c0.9,0,1.7-0.8,1.7-1.7c0,0,0,0,0,0c0,0,0,0,0,0   c0.4,3.7-0.8,4.9-1.7,4.9h-8.6V54L15,54c-0.9,0-1.7,0.8-1.7,1.7c0,0.9,0.8,1.7,1.7,1.7h21.9c0.9,0,1.7-0.8,1.7-1.7c0-0.1,0-0.2,0,0   c0.4,3.2-0.8,4-1.7,4H23.1v3.1c0,0.9,0.8,1.7,1.7,1.7h40.9c3.3,0,5.9-2.7,5.9-5.9V30.4L48.4,49.7c-0.3,0.3-0.7,0.4-1.1,0.4   c-0.4,0-0.8-0.1-1.1-0.4L23.1,30.3v8.3l-5.2,0c-0.9,0-1.7,0.8-1.7,1.7S17,42,17.9,42h8.8c0.9,0,1.7-0.8,1.7-1.7c0-0.1,0-0.1,0,0   C28.5,43.2,27.6,44.5,26.7,44.5z"></path></g></svg>