<svg xmlns="http://www.w3.org/2000/svg" viewBox="0 0 73.5 70.38"><defs><style>.cls-1{fill:#fff7b0;}.cls-1,.cls-2{stroke:#000;stroke-linecap:round;stroke-linejoin:round;stroke-width:2px;}.cls-2{fill:none;}</style></defs><g id="Layer_2" data-name="Layer 2"><g id="ARTWORK"><path class="cls-1" d="M40.41,3.65l5.8,17.87a3.85,3.85,0,0,0,3.66,2.66H68.65a3.84,3.84,0,0,1,2.26,7l-15.2,11a3.85,3.85,0,0,0-1.39,4.3l5.8,17.87a3.84,3.84,0,0,1-5.91,4.29L39,57.59a3.84,3.84,0,0,0-4.52,0l-15.2,11a3.84,3.84,0,0,1-5.91-4.29l5.81-17.87a3.85,3.85,0,0,0-1.4-4.3l-15.2-11a3.84,3.84,0,0,1,2.26-6.95H23.64a3.83,3.83,0,0,0,3.65-2.66L33.1,3.65A3.85,3.85,0,0,1,40.41,3.65Z"/><path class="cls-2" d="M25,39.17a12.22,12.22,0,0,0,23.7,0"/><path d="M45.52,34.78a.45.45,0,0,0,.69-.37h0a3.78,3.78,0,1,0-7.55,0h0a.44.44,0,0,0,.68.37,5.92,5.92,0,0,1,6.18,0Z"/><path d="M34.36,34.78a.44.44,0,0,0,.68-.37h0a3.78,3.78,0,1,0-7.55,0h0a.45.45,0,0,0,.69.37,5.92,5.92,0,0,1,6.18,0Z"/></g></g></svg>