<svg xmlns="http://www.w3.org/2000/svg" viewBox="0 0 59.17 67.39"><defs><style>.cls-1{fill:#f4b7d1;}.cls-1,.cls-2,.cls-3{stroke:#000;}.cls-1,.cls-2{stroke-linecap:round;stroke-linejoin:round;stroke-width:2px;}.cls-2{fill:none;}.cls-3{stroke-miterlimit:10;}</style></defs><g id="Layer_2" data-name="Layer 2"><g id="ARTWORK"><path class="cls-1" d="M58.17,37.8A28.59,28.59,0,1,1,29.59,9.22,28.59,28.59,0,0,1,58.17,37.8Z"/><path class="cls-2" d="M17.83,39.85a12.22,12.22,0,0,0,23.7,0"/><path d="M38.35,34.2a.45.45,0,0,0,.69-.37h0a3.78,3.78,0,0,0-7.56,0h0a.45.45,0,0,0,.69.37,5.92,5.92,0,0,1,6.18,0Z"/><path d="M27.18,34.2a.45.45,0,0,0,.69-.37h0a3.78,3.78,0,0,0-7.55,0h0a.45.45,0,0,0,.69.37,5.9,5.9,0,0,1,6.17,0Z"/><path class="cls-3" d="M29.43.5C19.64.5,1.13,2.34,1.13,9.28s18.51,8.79,28.3,8.79,28.3-1.84,28.3-8.79S39.22.5,29.43.5Zm0,14C13,14.53,4.59,10.85,4.59,9.28c0-.41.62-1,1.8-1.59,4.47-4,16.25-5.2,23.14-5.2S48.72,3.72,53,7.94h-.05c.89.51,1.36,1,1.36,1.34C54.27,10.85,45.82,14.53,29.43,14.53Z"/><path class="cls-3" d="M52.91,7.94H53C48.72,3.72,36.57,2.49,29.53,2.49S10.86,3.68,6.39,7.69C9.67,6,17.4,4,29.43,4,42.05,4,49.94,6.22,52.91,7.94Z"/></g></g></svg>