<svg xmlns="http://www.w3.org/2000/svg" viewBox="0 0 46.13 49.14"><defs><style>.cls-1{fill:#be5a4b;}.cls-1,.cls-2{stroke:#000;stroke-linecap:round;stroke-linejoin:round;stroke-width:2px;}.cls-2{fill:#fff7b0;}</style></defs><g id="Layer_2" data-name="Layer 2"><g id="ARTWORK"><path class="cls-1" d="M31.77,32.76A15.38,15.38,0,0,0,16.39,48.14,15.37,15.37,0,0,0,1,32.76,15.38,15.38,0,0,0,16.39,17.38,15.39,15.39,0,0,0,31.77,32.76Z"/><path class="cls-2" d="M45.13,12.31A11.31,11.31,0,0,0,33.82,23.62,11.31,11.31,0,0,0,22.5,12.31,11.31,11.31,0,0,0,33.82,1,11.31,11.31,0,0,0,45.13,12.31Z"/></g></g></svg>