<svg xmlns="http://www.w3.org/2000/svg" viewBox="0 0 178.09 158.76"><defs><style>.cls-1{fill:#fff7b0;}.cls-1,.cls-2{stroke:#000;stroke-linecap:round;stroke-linejoin:round;stroke-width:2px;}.cls-2{fill:#f4b7d1;}</style></defs><g id="Layer_2" data-name="Layer 2"><g id="Layer_1-2" data-name="Layer 1"><path class="cls-1" d="M5.39,157.76a4.35,4.35,0,0,1-3.74-6.64l30.21-48.48a4.35,4.35,0,0,1,3.63-2h0a4.32,4.32,0,0,1,3.67,1.94l11.58,17.48L77.43,77.23a4.34,4.34,0,0,1,5.93-1.54A4.26,4.26,0,0,1,84.78,77L96.33,94.48l26.74-42.91a4.34,4.34,0,1,1,7.37,4.59h0l-30.22,48.48a4.33,4.33,0,0,1-4.56,2h-.24a4.27,4.27,0,0,1-2.74-1.85L81.33,87.43,54.69,130.18a4.34,4.34,0,0,1-4.56,2l-.25-.05a4.32,4.32,0,0,1-2.74-1.86L35.71,113,9,155.7A4.35,4.35,0,0,1,5.39,157.76Z"/><polygon class="cls-2" points="149.28 1 144.77 36.46 177.09 51.71 141.97 58.37 137.46 93.82 120.27 62.48 85.16 69.14 109.65 43.12 92.47 11.78 124.79 27.03 149.28 1"/></g></g></svg>