<svg height='100px' width='100px'  fill="#000000" xmlns="http://www.w3.org/2000/svg" xmlns:xlink="http://www.w3.org/1999/xlink" version="1.1" x="0px" y="0px" viewBox="0 0 100 100" style="enable-background:new 0 0 100 100;" xml:space="preserve"><style type="text/css">
	.st0{fill:none;stroke:#000000;stroke-width:2;stroke-linecap:round;stroke-linejoin:round;stroke-miterlimit:10;}
	.st1{fill:none;stroke:#000000;stroke-width:2.0126;stroke-linecap:round;stroke-linejoin:round;}
</style><path d="M91.5,59c-3.5,0-5.3-4.6-7.3-9.4C82,44.4,79.7,39,74.9,39s-7,5.4-9.2,10.6c-2,4.8-3.9,9.4-7.3,9.4c-3.5,0-5.3-4.6-7.3-9.4  C48.9,44.4,46.7,39,41.9,39s-7,5.4-9.2,10.6c-2,4.8-3.9,9.4-7.3,9.4c-3.5,0-5.3-4.6-7.3-9.4C15.8,44.4,13.6,39,8.8,39  c-0.6,0-1,0.4-1,1s0.4,1,1,1c3.5,0,5.3,4.6,7.3,9.4c2.2,5.2,4.4,10.6,9.2,10.6c4.8,0,7-5.4,9.2-10.6c2-4.8,3.9-9.4,7.3-9.4  c3.5,0,5.3,4.6,7.3,9.4c2.2,5.2,4.4,10.6,9.2,10.6c4.8,0,7-5.4,9.2-10.6c2-4.8,3.9-9.4,7.3-9.4s5.3,4.6,7.3,9.4  c2.2,5.2,4.4,10.6,9.2,10.6c0.6,0,1-0.4,1-1S92,59,91.5,59z"></path></svg>